<?xml version="1.0" encoding="UTF-8" standalone="no"?>
<svg
   width="64"
   height="64"
   version="1.1"
   id="svg2"
   sodipodi:docname="brave.svg"
   inkscape:version="1.4 (e7c3feb100, 2024-10-09)"
   xmlns:inkscape="http://www.inkscape.org/namespaces/inkscape"
   xmlns:sodipodi="http://sodipodi.sourceforge.net/DTD/sodipodi-0.dtd"
   xmlns="http://www.w3.org/2000/svg"
   xmlns:svg="http://www.w3.org/2000/svg">
  <defs
     id="defs2" />
  <sodipodi:namedview
     id="namedview2"
     pagecolor="#ffffff"
     bordercolor="#000000"
     borderopacity="0.25"
     inkscape:showpageshadow="2"
     inkscape:pageopacity="0.0"
     inkscape:pagecheckerboard="0"
     inkscape:deskcolor="#d1d1d1"
     inkscape:zoom="12.4375"
     inkscape:cx="31.959799"
     inkscape:cy="32"
     inkscape:window-width="1920"
     inkscape:window-height="1008"
     inkscape:window-x="0"
     inkscape:window-y="0"
     inkscape:window-maximized="1"
     inkscape:current-layer="svg2" />
  <g
     id="g2"
     transform="matrix(1.5318902,0,0,1.5318902,-17.020486,-17.020487)">
    <path
       d="m 26,12.5 c -0.75,0 -3.375,3 -3.75,3 H 20.375 C 19.625,15.5 17,18.126 17,18.876 v 2.25 c 0,0.375 -2.984,3 -3,3.75 -0.016,0.75 5.25,18.374 6,19.124 0.75,0.75 9,7.5 11.25,7.5 h 1.5 C 35,51.5 43.25,44.75 44,44 44.75,43.25 50.015,25.625 50,24.875 49.983,24.129 47,21.5 47,21.125 v -2.25 C 47,18.125 44.375,15.5 43.625,15.5 H 41.75 c -0.375,0 -3,-3 -3.75,-3 z"
       fill="#fd4932"
       id="path1" />
    <path
       d="m 32,17.739 c -0.747,0 -1.491,0.256 -2.25,0.762 -2.25,1.5 -5.25,-0.75 -6,-0.75 -0.75,0 -5.25,5.464 -5.25,7.5 0,1.5 5.625,4.95 5.625,6 0,0.75 -1.125,1.11 -1.125,2.701 0,1.049 1.5,2.924 3,2.924 1.5,0 5.253,-2.945 5.25,-3.674 v -0.451 c 0,-0.9 -3.375,-2.034 -3.375,-3.75 0,-1.5 1.125,-2.055 1.125,-3.75 0,-1.458 -3,-1.875 -5.25,-2.25 -0.75,0 2.25,-2.468 6.375,0.199 1.044,0.675 -1.125,3.344 -0.75,5.8 0.563,0.526 1.595,0.788 2.625,0.788 1.032,0 2.063,-0.262 2.625,-0.787 C 35,26.544 32.831,23.875 33.875,23.2 38,20.533 41,23 40.25,23 38,23.376 35,23.793 35,25.25 c 0,1.696 1.125,2.25 1.125,3.75 0,1.717 -3.375,2.85 -3.375,3.75 v 0.452 c -0.003,0.729 3.75,3.674 5.25,3.674 1.5,0 3,-1.875 3,-2.924 0,-1.59 -1.125,-1.951 -1.125,-2.701 0,-1.05 5.625,-4.5 5.625,-6 0,-2.036 -4.5,-7.5 -5.25,-7.5 -0.75,0 -3.75,2.25 -6,0.75 C 33.491,17.995 32.75,17.739 32,17.739 Z M 32,35.6 c -1.5,0 -4.875,2.325 -4.875,2.775 0,0.45 3.375,4.125 4.875,4.125 1.5,0 4.875,-3.675 4.875,-4.125 C 36.875,37.925 33.5,35.6 32,35.6 Z"
       fill="#f9f9f9"
       id="path2" />
  </g>
</svg>
