<?xml version="1.0" encoding="UTF-8" standalone="no"?>
<svg
   width="64"
   height="64"
   version="1"
   id="svg2"
   sodipodi:docname="spotify.svg"
   inkscape:version="1.4 (e7c3feb100, 2024-10-09)"
   xmlns:inkscape="http://www.inkscape.org/namespaces/inkscape"
   xmlns:sodipodi="http://sodipodi.sourceforge.net/DTD/sodipodi-0.dtd"
   xmlns="http://www.w3.org/2000/svg"
   xmlns:svg="http://www.w3.org/2000/svg">
  <defs
     id="defs2" />
  <sodipodi:namedview
     id="namedview2"
     pagecolor="#ffffff"
     bordercolor="#000000"
     borderopacity="0.25"
     inkscape:showpageshadow="2"
     inkscape:pageopacity="0.0"
     inkscape:pagecheckerboard="0"
     inkscape:deskcolor="#d1d1d1"
     inkscape:zoom="12.4375"
     inkscape:cx="31.959799"
     inkscape:cy="32"
     inkscape:window-width="1920"
     inkscape:window-height="1008"
     inkscape:window-x="0"
     inkscape:window-y="0"
     inkscape:window-maximized="1"
     inkscape:current-layer="svg2" />
  <path
     id="circle1"
     style="fill:#dedede;paint-order:markers stroke fill;fill-opacity:1"
     inkscape:label="circle1"
     d="M 32 5 A 27 27 0 0 0 5 32 A 27 27 0 0 0 32 59 A 27 27 0 0 0 59 32 A 27 27 0 0 0 32 5 z M 28.421875 19.007812 C 36.318474 19.00528 44.406628 20.731712 51.660156 24.554688 A 2.6558295 2.6558295 0 1 1 49.185547 29.251953 C 38.964781 23.865607 26.457704 23.143472 16.007812 25.929688 A 2.6558295 2.6558295 0 1 1 14.638672 20.798828 A 53.762192 53.762192 0 0 1 28.421875 19.007812 z M 28.109375 28.769531 C 35.008456 28.799912 42.18792 30.404813 48.099609 34.111328 A 2.2864935 2.2864935 0 1 1 45.669922 37.984375 C 37.723954 32.999315 25.950154 32.372158 17.558594 34.708984 A 2.2861907 2.2861907 0 1 1 16.332031 30.306641 C 19.930946 29.302793 23.969927 28.753764 28.109375 28.771484 L 28.109375 28.769531 z M 28.619141 38.005859 C 33.806744 38.08561 39.265238 39.251518 44.693359 42.492188 A 1.7697557 1.7697557 0 1 1 42.878906 45.53125 C 34.241763 40.37656 25.70317 41.059283 17.917969 42.791016 A 1.7697091 1.7697091 0 1 1 17.150391 39.335938 C 20.712595 38.542226 24.583496 37.945099 28.619141 38.005859 z " />
</svg>
