<?xml version="1.0" encoding="UTF-8" standalone="no"?>
<svg
   viewBox="0 0 64 64"
   version="1.1"
   id="svg4"
   sodipodi:docname="start-here-kde-plasma.svg"
   inkscape:version="1.4 (e7c3feb100, 2024-10-09)"
   xmlns:inkscape="http://www.inkscape.org/namespaces/inkscape"
   xmlns:sodipodi="http://sodipodi.sourceforge.net/DTD/sodipodi-0.dtd"
   xmlns="http://www.w3.org/2000/svg"
   xmlns:svg="http://www.w3.org/2000/svg">
  <sodipodi:namedview
     id="namedview4"
     pagecolor="#ffffff"
     bordercolor="#000000"
     borderopacity="0.25"
     inkscape:showpageshadow="2"
     inkscape:pageopacity="0.0"
     inkscape:pagecheckerboard="0"
     inkscape:deskcolor="#d1d1d1"
     inkscape:zoom="11.313709"
     inkscape:cx="32.394329"
     inkscape:cy="32.173358"
     inkscape:window-width="1920"
     inkscape:window-height="1080"
     inkscape:window-x="0"
     inkscape:window-y="0"
     inkscape:window-maximized="1"
     inkscape:current-layer="svg4" />
  <defs
     id="defs3051">
    <style
       type="text/css"
       id="current-color-scheme">.ColorScheme-Text { color: #fcfcfc; } </style>
  </defs>
  <path
     style="fill:#c6d0f5;fill-rule:evenodd;fill-opacity:1;font-variation-settings:normal;opacity:1;vector-effect:none;stroke-width:1;stroke-linecap:butt;stroke-linejoin:miter;stroke-miterlimit:4;stroke-dasharray:none;stroke-dashoffset:0;stroke-opacity:1;-inkscape-stroke:none;stop-color:#000000;stop-opacity:1"
     d="M 41 5 L 35 11 L 46 22 L 35 33 L 41 39 L 58 22 L 41 5 z "
     class="ColorScheme-Text"
     id="path1" />
  <path
     style="color:#fcfcfc;fill:#b5bfe2;fill-opacity:1;fill-rule:evenodd"
     d="M 46,22 35,33 41,39 51.973602,28.026398 Z"
     class="ColorScheme-Text"
     id="path1-5"
     sodipodi:nodetypes="ccccc" />
  <path
     style="fill:#81c8be;fill-opacity:1"
     d="M 18.9 6 C 17.1 6 15.75 7.4 15.75 9.125 C 15.75 10.8 17.1 12.25 18.9 12.25 C 20.6 12.25 22 10.8 22 9.125 C 22 7.4 20.6 6 18.9 6 z "
     id="path2" />
  <path
     style="fill:#85c1dc;fill-opacity:1"
     d="M 10.5 25.5 C 8 25.5 6 27.5 6 30 C 6 32.5 8 34.5 10.5 34.5 C 13 34.5 15 32.5 15 30 C 15 27.5 13 25.5 10.5 25.5 z "
     id="path3" />
  <path
     style="fill:#8caaee;fill-opacity:1"
     d="M 25.5 45 C 21.9 45 19 47.9 19 51.5 C 19 55.1 21.9 58 25.5 58 C 29.1 58 32 55.1 32 51.5 C 32 47.9 29.1 45 25.5 45 z "
     id="path4" />
</svg>
